<svg width="18" height="17" viewBox="0 0 18 17" fill="none" xmlns="http://www.w3.org/2000/svg">
<path d="M16.612 1.59567C16.1722 1.14723 15.65 0.791489 15.0752 0.548782C14.5005 0.306074 13.8844 0.181152 13.2623 0.181152C12.6401 0.181152 12.0241 0.306074 11.4493 0.548782C10.8746 0.791489 10.3524 1.14723 9.91255 1.59567L8.99977 2.52591L8.08699 1.59567C7.19858 0.69027 5.99364 0.181622 4.73725 0.181622C3.48085 0.181622 2.27591 0.69027 1.38751 1.59567C0.499101 2.50107 9.36088e-09 3.72905 0 5.00948C-9.36088e-09 6.28991 0.499101 7.51789 1.38751 8.42329L2.30029 9.35353L8.99977 16.1812L15.6992 9.35353L16.612 8.42329C17.0521 7.97506 17.4011 7.44286 17.6393 6.85711C17.8774 6.27136 18 5.64352 18 5.00948C18 4.37543 17.8774 3.7476 17.6393 3.16185C17.4011 2.5761 17.0521 2.0439 16.612 1.59567Z" fill="#FC857F"/>
</svg>
